<svg xmlns="http://www.w3.org/2000/svg" xmlns:xlink="http://www.w3.org/1999/xlink" width="500" zoomAndPan="magnify" viewBox="0 0 375 374.999991" height="500" preserveAspectRatio="xMidYMid meet" version="1.0"><defs><g/></defs><rect x="-37.5" width="450" fill="#ffffff" y="-37.499999" height="449.999989" fill-opacity="1"/><rect x="-37.5" width="450" fill="#ffffff" y="-37.499999" height="449.999989" fill-opacity="1"/><g fill="#2274a5" fill-opacity="1"><g transform="translate(125.247258, 230.597808)"><g><path d="M 25.8125 -78.78125 L 25.8125 -13.046875 L 61.21875 -13.046875 L 61.21875 0 L 10.234375 0 L 10.234375 -78.78125 Z M 25.8125 -78.78125 "/></g></g></g><g fill="#ef8354" fill-opacity="1"><g transform="translate(182.732923, 229.967987)"><g><path d="M 64.796875 -80.828125 L 64.796875 -67.40625 L 41.46875 -67.40625 L 41.46875 0 L 25.546875 0 L 25.546875 -67.40625 L 2.21875 -67.40625 L 2.21875 -80.828125 Z M 64.796875 -80.828125 "/></g></g></g><g fill="#e7eb90" fill-opacity="1"><g transform="translate(173.053997, 230.597808)"><g><path d="M 16 -66.546875 C 13.3125 -66.546875 11.117188 -67.363281 9.421875 -69 C 7.734375 -70.632812 6.890625 -72.742188 6.890625 -75.328125 C 6.890625 -77.878906 7.734375 -79.972656 9.421875 -81.609375 C 11.117188 -83.242188 13.3125 -84.0625 16 -84.0625 C 17.800781 -84.0625 19.398438 -83.679688 20.796875 -82.921875 C 22.203125 -82.171875 23.289062 -81.140625 24.0625 -79.828125 C 24.832031 -78.515625 25.21875 -77.015625 25.21875 -75.328125 C 25.21875 -73.640625 24.832031 -72.128906 24.0625 -70.796875 C 23.289062 -69.472656 22.203125 -68.429688 20.796875 -67.671875 C 19.398438 -66.921875 17.800781 -66.546875 16 -66.546875 Z M 8.5625 0 L 8.5625 -59.4375 L 23.5 -59.4375 L 23.5 0 Z M 8.5625 0 "/></g></g></g></svg>